<svg xmlns="http://www.w3.org/2000/svg" width="38.827" height="39.671" viewBox="0 0 38.827 39.671">
  <g id="icone_errado" transform="translate(-8318.685 47)">
    <path id="Elipse_46" data-name="Elipse 46" d="M19.414,1A18.089,18.089,0,0,0,6.4,6.509,18.8,18.8,0,0,0,2.45,12.5a19.3,19.3,0,0,0,0,14.677A18.8,18.8,0,0,0,6.4,33.162a18.123,18.123,0,0,0,26.026,0,18.8,18.8,0,0,0,3.951-5.988,19.3,19.3,0,0,0,0-14.677,18.8,18.8,0,0,0-3.951-5.988A18.089,18.089,0,0,0,19.414,1m0-1A19.628,19.628,0,0,1,38.827,19.836,19.628,19.628,0,0,1,19.414,39.671,19.628,19.628,0,0,1,0,19.836,19.628,19.628,0,0,1,19.414,0Z" transform="translate(8318.685 -47)"/>
    <g id="Grupo_314" data-name="Grupo 314" transform="translate(8330.929 -34.334)">
      <path id="Linha_2" data-name="Linha 2" d="M12.926,15.754-1.414,1.414,1.414-1.414l14.34,14.34Z" fill="#f64cb0"/>
      <path id="Linha_3" data-name="Linha 3" d="M1.414,15.754l-2.828-2.828,14.34-14.34,2.828,2.828Z" fill="#f64cb0"/>
    </g>
  </g>
</svg>
