<svg xmlns="http://www.w3.org/2000/svg" width="38.827" height="39.671" viewBox="0 0 38.827 39.671">
  <g id="icone_certo" transform="translate(-8272.586 47)">
    <path id="Elipse_46" data-name="Elipse 46" d="M19.414,1A18.089,18.089,0,0,0,6.4,6.509,18.8,18.8,0,0,0,2.45,12.5a19.3,19.3,0,0,0,0,14.677A18.8,18.8,0,0,0,6.4,33.162a18.123,18.123,0,0,0,26.026,0,18.8,18.8,0,0,0,3.951-5.988,19.3,19.3,0,0,0,0-14.677,18.8,18.8,0,0,0-3.951-5.988A18.089,18.089,0,0,0,19.414,1m0-1A19.628,19.628,0,0,1,38.827,19.836,19.628,19.628,0,0,1,19.414,39.671,19.628,19.628,0,0,1,0,19.836,19.628,19.628,0,0,1,19.414,0Z" transform="translate(8272.586 -47)"/>
    <path id="Caminho_244" data-name="Caminho 244" d="M7975.69,707.777l-7.553-5.23,2.277-3.289,5.117,3.543,10.537-8.341,2.482,3.136Z" transform="translate(313.656 -728.284)" fill="#85d81e"/>
  </g>
</svg>
